<?xml version="1.0" encoding="utf-8"?>
<!-- Generator: Adobe Illustrator 23.0.0, SVG Export Plug-In . SVG Version: 6.00 Build 0)  -->
<svg version="1.1" id="Layer_1" xmlns="http://www.w3.org/2000/svg" xmlns:xlink="http://www.w3.org/1999/xlink" x="0px" y="0px"
	 viewBox="0 0 104 16" style="enable-background:new 0 0 104 16;" xml:space="preserve">
<style type="text/css">
	.st0{fill:none;}
	.st1{fill:#CCCCCC;}
</style>
<path class="st0" d="M-8-8h120v32H-8V-8z"/>
<path class="st1" d="M6.9,11.2c0.2,0.4,0.1,0.8,0,1.1c-0.1,0.5-0.5,1-1.4,1C4.6,13.3,4,12.8,4,12v-1.5H0v1.1C0,15,2.6,16,5.4,16
	c2.7,0,4.9-0.9,5.3-3.4c0.2-1.3,0.1-2.1,0-2.5C10,7,4.4,6.1,3.9,4.3C3.9,4,3.9,3.7,3.9,3.5c0.1-0.5,0.4-1,1.4-1
	c0.9,0,1.4,0.5,1.4,1.3v0.9h3.7V3.8c0-3.3-2.9-3.8-5-3.8C2.7,0,0.6,0.9,0.2,3.3C0.1,4,0,4.6,0.2,5.3C0.8,8.4,6.1,9.2,6.9,11.2z
	 M55.2,11.2c0.2,0.4,0.1,0.8,0,1.1c-0.1,0.5-0.5,1-1.4,1c-0.9,0-1.5-0.5-1.5-1.3v-1.4h-3.9v1.1c0,3.3,2.6,4.3,5.4,4.3
	c2.7,0,4.8-0.9,5.2-3.4c0.2-1.3,0.1-2.1,0-2.4c-0.6-3.1-6.2-4-6.6-5.7c-0.1-0.3-0.1-0.6,0-0.8c0.1-0.5,0.4-1,1.3-1
	c0.8,0,1.4,0.5,1.4,1.3v0.9h3.7v-1c0-3.2-2.9-3.7-5-3.7c-2.6,0-4.7,0.9-5.2,3.3c-0.1,0.6-0.1,1.2,0,2C49.2,8.4,54.5,9.2,55.2,11.2z
	 M86.1,12.5l-0.2-12h3.7v14.8h-5.3L80.5,2.8l0.2,12.4H77V0.5h5.5C82.6,0.5,86.1,12.5,86.1,12.5z M19.3,1.6l-2.1,13.8h-4l2.7-14.9
	h6.6l2.7,14.9h-4C21.3,15.4,19.2,1.6,19.3,1.6z M40.9,1.6l-2.6,13.8h-3.8L32.1,1.6L32,15.4h-3.7l0.3-14.9h6.1l1.9,11.6l1.9-11.6h6.1
	l0.3,14.9H41L40.9,1.6L40.9,1.6z M67.7,13.2c1,0,1.4-0.7,1.4-1.1c0-0.2,0-0.4,0-0.6V0.4h3.8v10.7c0,0.3,0,0.8,0,1
	c-0.3,2.8-2.4,3.7-5.2,3.7c-2.7,0-4.9-0.9-5.2-3.7c0-0.2-0.1-0.7,0-1V0.4h3.8v11.1c0,0.2,0,0.4,0,0.6C66.4,12.5,66.7,13.2,67.7,13.2
	L67.7,13.2z M98.7,13c1.1,0,1.4-0.7,1.5-1.1c0-0.2,0.1-0.4,0-0.6V9.2h-1.5V7h5.3v4c0,0.3,0,0.5-0.1,1c-0.3,2.7-2.6,3.7-5.2,3.7
	c-2.6,0-5-1-5.2-3.7c-0.1-0.5-0.1-0.7-0.1-1V4.7c0-0.3,0-0.7,0.1-1c0.3-2.8,2.6-3.7,5.2-3.7c2.6,0,4.9,0.9,5.2,3.7c0.1,0.5,0,1,0,1
	v0.5h-3.8V4.4c0,0,0-0.4-0.1-0.6c-0.1-0.3-0.4-1.1-1.5-1.1c-1.1,0-1.4,0.7-1.5,1.1c-0.1,0.2-0.1,0.5-0.1,0.7v6.8c0,0.2,0,0.4,0,0.6
	C97.2,12.3,97.6,13,98.7,13L98.7,13z"/>
</svg>
